mtllib spring.mtl
g object_004B67C8
v 4.872526 1.498503 4.872526
v 6.890789 1.498503 0
v 0 2.583029 0
v 4.872526 -0.008204999 4.872526
v 6.890791 -0.008204999 0
v 0 1.498503 6.890789
v 0 -0.008204999 6.890791
v 4.872526 1.498503 -4.872526
v 4.872526 -0.008204999 -4.872526
v -4.872526 1.498503 4.872526
v -4.872526 -0.008204999 4.872526
v -6.890789 1.498503 0
v -6.890791 -0.008204999 0
v 0 1.498503 -6.890789
v 0 -0.008204999 -6.890791
v -4.872526 1.498503 -4.872526
v -4.872526 -0.008204999 -4.872526
vn 0.575626 0.580783 0.575626
vn 0.814059 0.580783 0
vn 0 1 0
vn 0.707107 1E-06 0.707107
vn 1 1E-06 0
vn 0 0.580783 0.814059
vn 0 1E-06 1
vn 0.575626 0.580783 -0.575626
vn 0.707107 1E-06 -0.707107
vn -0.575626 0.580783 0.575626
vn -0.707107 1E-06 0.707107
vn -0.814059 0.580783 0
vn -1 1E-06 0
vn 0 0.580783 -0.814059
vn 0 1E-06 -1
vn -0.575626 0.580783 -0.575626
vn -0.707107 1E-06 -0.707107
usemtl object_004B67C8_material_7
vt 0.8509804 -0.1215686
vt 0.9960784 -0.4196078
vt 0.4980392 -0.4196078
vt 0.8509804 -0.7176471
vt 0 -0.4196078
vt 0.145098 -0.1215686
vt 0.4980392 -0.4196078
vt 0.4980392 0
vt 0.8509804 -0.1215686
vt 0.8509804 -0.7176471
vt 0.4980392 -0.8431373
vt 0.4980392 -0.4196078
vt 0.145098 -0.7176471
vt 0 -0.4196078
f 1/1/1 2/2/2 3/3/3
f 3/3/3 2/2/2 8/4/8
# processed UV strips this poly: 4
f 12/5/12 10/6/10 3/7/3
f 3/7/3 10/6/10 6/8/6
f 3/7/3 6/8/6 1/9/1
# processed UV strips this poly: 9
f 8/10/8 14/11/14 3/12/3
f 3/12/3 14/11/14 16/13/16
f 3/12/3 16/13/16 12/14/12
# processed UV strips this poly: 14
usemtl object_004B67C8_material_7
vt 8 -0.7333333
vt 8 -1
vt 7 -0.7333333
vt 7 -1
vt 6 -0.7333333
vt 6 -1
vt 5 -0.7333333
vt 5 -1
vt 3.980392 -0.7333333
vt 4 -1
vt 3 -0.7333333
vt 3 -1
vt 2 -0.7333333
vt 2 -1
vt 1 -0.7333333
vt 1 -1
vt 0 -0.7333333
vt 0 -1
f 15/16/15 14/15/14 8/17/8
f 15/16/15 8/17/8 9/18/9
f 9/18/9 8/17/8 2/19/2
f 9/18/9 2/19/2 5/20/5
f 5/20/5 2/19/2 1/21/1
f 5/20/5 1/21/1 4/22/4
f 4/22/4 1/21/1 6/23/6
f 4/22/4 6/23/6 7/24/7
f 7/24/7 6/23/6 10/25/10
f 7/24/7 10/25/10 11/26/11
f 11/26/11 10/25/10 12/27/12
f 11/26/11 12/27/12 13/28/13
f 13/28/13 12/27/12 16/29/16
f 13/28/13 16/29/16 17/30/17
f 17/30/17 16/29/16 14/31/14
f 17/30/17 14/31/14 15/32/15
# processed UV strips this poly: 18

g object_004B649C
v 3.53018 1.42568 0
v 3.53018 2.492336 0
v 2.539699 1.669011 -2.539699
v 2.539699 2.735667 -2.539699
v 0 1.912342 -3.530181
v 0 2.978998 -3.530181
v -2.539699 2.155673 -2.539699
v -2.539699 3.22233 -2.539699
v -3.53018 3.465661 0
v -3.53018 2.399005 0
v -2.539699 2.642336 2.539699
v -2.539699 3.708992 2.539699
v 0 3.952323 3.530181
v 0 2.885667 3.530181
v 2.539699 3.128998 2.539699
v 2.539699 4.195654 2.539699
v 3.53018 3.37233 0
v 3.53018 4.438985 0
v 2.539699 3.615661 -2.539699
v 2.539699 4.682316 -2.539699
v 0 3.858992 -3.530181
v 0 4.925648 -3.530181
v -2.539699 4.102323 -2.539699
v -2.539699 5.16898 -2.539699
v -3.53018 5.412311 0
v -3.53018 4.345654 0
v -2.539699 4.588985 2.539699
v -2.539699 5.655642 2.539699
v 0 5.898973 3.530181
v 0 4.832316 3.530181
v 2.539699 1.182349 2.539699
v 2.539699 6.041903 2.539699
vn 0.999756 0 0.022098
vn 0.99718 0 -0.07505
vn 0.72447 0 -0.689306
vn 0.689306 0 -0.72447
vn 0.022098 0 -0.999756
vn -0.022098 0 -0.999756
vn -0.689306 0 -0.72447
vn -0.72447 0 -0.689306
vn -0.999756 0 0.022098
vn -0.999756 0 -0.022098
vn -0.72447 0 0.689306
vn -0.689306 0 0.72447
vn 0.022098 0 0.999756
vn -0.022098 0 0.999756
vn 0.689306 0 0.72447
vn 0.72447 0 0.689306
vn 0.999756 0 0.022098
vn 0.999756 0 -0.022098
vn 0.72447 0 -0.689306
vn 0.689306 0 -0.72447
vn 0.022098 0 -0.999756
vn -0.022098 0 -0.999756
vn -0.689306 0 -0.72447
vn -0.72447 0 -0.689306
vn -0.999756 0 0.022098
vn -0.999756 0 -0.022098
vn -0.72447 0 0.689306
vn -0.689306 0 0.72447
vn 0.017759 0 0.999842
vn -0.07007 0 0.997542
vn 0.931655 0 0.363345
vn 0.363345 0 0.931655
usemtl object_004B67C8_material_25
vt 0.8588235 0
vt 0.4980392 -0.2470588
vt 0.4980392 -0.02745098
vt 0.1372549 -0.2980392
vt 0.1372549 -0.07843138
vt 0 -0.3490196
vt 0 -0.1294118
vt 0.1372549 -0.3960784
vt 0.1372549 -0.1764706
vt 0.4980392 -0.4470588
vt 0.4980392 -0.227451
vt 0.8588235 -0.4980392
vt 0.8588235 -0.2784314
vt 1 -0.5490196
vt 1 -0.3294118
vt 0.8588235 -0.5960785
vt 0.8588235 -0.3764706
vt 0.4980392 -0.6470588
vt 0.4980392 -0.427451
vt 0.1372549 -0.6980392
vt 0.1372549 -0.4784314
vt 0 -0.7490196
vt 0 -0.5294118
vt 0.1372549 -0.7960784
vt 0.1372549 -0.5764706
vt 0.4980392 -0.8470588
vt 0.4980392 -0.627451
vt 0.8588235 -0.8980392
vt 0.8588235 -0.6784314
vt 1 -0.9490196
vt 1 -0.7294118
vt 0.8588235 -1
f 47/34/47 49/33/49 46/35/46
f 47/34/47 46/35/46 44/36/44
f 44/36/44 46/35/46 45/37/45
f 44/36/44 45/37/45 43/38/43
f 43/38/43 45/37/45 42/39/42
f 43/38/43 42/39/42 40/40/40
f 40/40/40 42/39/42 41/41/41
f 40/40/40 41/41/41 38/42/38
f 38/42/38 41/41/41 39/43/39
f 38/42/38 39/43/39 36/44/36
f 36/44/36 39/43/39 37/45/37
f 36/44/36 37/45/37 34/46/34
f 34/46/34 37/45/37 35/47/35
f 34/46/34 35/47/35 32/48/32
f 32/48/32 35/47/35 33/49/33
f 32/48/32 33/49/33 31/50/31
f 31/50/31 33/49/33 30/51/30
f 31/50/31 30/51/30 28/52/28
f 28/52/28 30/51/30 29/53/29
f 28/52/28 29/53/29 27/54/27
f 27/54/27 29/53/29 26/55/26
f 27/54/27 26/55/26 24/56/24
f 24/56/24 26/55/26 25/57/25
f 24/56/24 25/57/25 22/58/22
f 22/58/22 25/57/25 23/59/23
f 22/58/22 23/59/23 20/60/20
f 20/60/20 23/59/23 21/61/21
f 20/60/20 21/61/21 18/62/18
f 18/62/18 21/61/21 19/63/19
f 18/62/18 19/63/19 48/64/48
# processed UV strips this poly: 32

g object_004B603C
v 0 10.83219 0
v 8.669918 9.606372 0
v 6.13056 9.606372 -6.13056
v 6.13056 9.606372 6.13056
v 0 9.606372 -8.669915
v 0 9.606372 8.669915
v -6.13056 9.606372 -6.13056
v -6.13056 9.606372 6.13056
v -8.669915 9.606372 0
v 10.89 5.90248 0
v 7.7004 5.90248 -7.700389
v 9.999999E-07 5.90248 -10.89
v -7.700398 5.90248 -7.700389
v -10.89 5.90248 0
v -7.700398 5.90248 7.700389
v 9.999999E-07 5.90248 10.89
v 7.7004 5.90248 7.700389
v 9.999999E-07 5.90248 0
vn 0.030073 0.999537 0.004596
vn 0.614508 0.788872 -0.007794
vn 0.437333 0.777067 -0.452665
vn 0.452666 0.777067 0.437334
vn 0.00388 0.797496 -0.603312
vn 0.023756 0.795241 0.605828
vn -0.43837 0.797613 -0.414301
vn -0.414301 0.797613 0.43837
vn -0.594527 0.803984 0.012149
vn 0.907652 -0.419724 0
vn 0.641807 -0.419724 -0.641806
vn 0 -0.419725 -0.907651
vn -0.641807 -0.419724 -0.641806
vn -0.907651 -0.419724 0
vn -0.641807 -0.419724 0.641806
vn 0 -0.419725 0.907651
vn 0.641807 -0.419725 0.641806
vn 0 -1 0
usemtl object_004B67C8_material_8
vt 0 -0.4980392
vt 0.145098 -0.145098
vt 0.4980392 -0.4980392
vt 0.4980392 0
vt 0.9960784 -0.4980392
vt 0.8509804 -0.145098
vt 0 -0.4980392
vt 0.145098 -0.8509804
vt 0.4980392 -0.4980392
vt 0.4980392 -0.9960784
vt 0.9960784 -0.4980392
vt 0.8509804 -0.8509804
f 58/65/58 57/66/57 50/67/50
f 50/67/50 57/66/57 55/68/55
f 50/67/50 55/68/55 51/69/51
f 51/69/51 55/68/55 53/70/53
# processed UV strips this poly: 6
f 56/72/56 58/71/58 50/73/50
f 56/72/56 50/73/50 54/74/54
f 54/74/54 50/73/50 51/75/51
f 54/74/54 51/75/51 52/76/52
# processed UV strips this poly: 12
usemtl object_004B67C8_material_9
vt 5 -1
vt 4 0
vt 4 -1
vt 3 0
vt 3 -1
vt 2 0
vt 2 -1
vt 1 0
vt 1 -1
vt 0 0
vt 0 -1
vt 7 0
vt 7 -1
vt 6 0
vt 6 -1
vt 5 0
vt 5 -1
vt 4 0
f 59/77/59 53/78/53 66/79/66
f 66/79/66 53/78/53 55/80/55
f 66/79/66 55/80/55 65/81/65
f 65/81/65 55/80/55 57/82/57
f 65/81/65 57/82/57 64/83/64
f 64/83/64 57/82/57 58/84/58
f 64/83/64 58/84/58 63/85/63
f 63/85/63 58/84/58 56/86/56
f 63/85/63 56/86/56 62/87/62
f 62/87/62 56/86/56 54/88/54
f 62/87/62 54/88/54 61/89/61
f 61/89/61 54/88/54 52/90/52
f 61/89/61 52/90/52 60/91/60
f 60/91/60 52/90/52 51/92/51
f 60/91/60 51/92/51 59/93/59
f 59/93/59 51/92/51 53/94/53
# processed UV strips this poly: 18
usemtl object_004B67C8_material_10
vt 0.9215686 -0.01176471
vt 0.07450981 -0.01176471
vt 0.4823529 -0.9843137
vt 0.9215686 -0.01176471
vt 0.07450981 -0.01176471
vt 0.4823529 -0.9843137
vt 0.4823529 -0.9843137
vt 0.9215686 -0.01176471
vt 0.07450981 -0.01176471
vt 0.4823529 -0.9843137
vt 0.9215686 -0.01176471
vt 0.07450981 -0.01176471
vt 0.4823529 -0.9843137
vt 0.9215686 -0.01176471
vt 0.07450981 -0.01176471
vt 0.4823529 -0.9843137
vt 0.9215686 -0.01176471
vt 0.07450981 -0.01176471
vt 0.4823529 -0.9843137
vt 0.9215686 -0.01176471
vt 0.07450981 -0.01176471
vt 0.4823529 -0.9843137
vt 0.9215686 -0.01176471
vt 0.07450981 -0.01176471
f 59/95/59 66/96/66 67/97/67
# processed UV strips this poly: 3
f 65/98/65 64/99/64 67/100/67
# processed UV strips this poly: 6
f 67/101/67 64/102/64 63/103/63
# processed UV strips this poly: 9
f 67/104/67 63/105/63 62/106/62
# processed UV strips this poly: 12
f 67/107/67 62/108/62 61/109/61
# processed UV strips this poly: 15
f 67/110/67 61/111/61 60/112/60
# processed UV strips this poly: 18
f 67/113/67 60/114/60 59/115/59
# processed UV strips this poly: 21
f 67/116/67 66/117/66 65/118/65
# processed UV strips this poly: 24

