<?xml version="1.0" encoding="UTF-8"?>
<svg xmlns="http://www.w3.org/2000/svg" xmlns:xlink="http://www.w3.org/1999/xlink" version="1.1" viewBox="0 0 757.628 757.628">
  <!-- Generator: Adobe Illustrator 29.1.0, SVG Export Plug-In . SVG Version: 2.1.0 Build 142)  -->
  <defs>
    <style>
      .st0 {
        fill: none;
      }

      .st1 {
        fill: url(#linear-gradient2);
      }

      .st2 {
        fill: url(#linear-gradient1);
      }

      .st3 {
        fill: url(#linear-gradient9);
      }

      .st4 {
        fill: url(#linear-gradient3);
      }

      .st5 {
        fill: url(#linear-gradient6);
      }

      .st6 {
        fill: url(#linear-gradient8);
      }

      .st7 {
        fill: url(#linear-gradient7);
      }

      .st8 {
        fill: url(#linear-gradient5);
      }

      .st9 {
        fill: url(#linear-gradient4);
      }

      .st10 {
        mix-blend-mode: multiply;
      }

      .st10, .st11 {
        fill: aqua;
      }

      .st12 {
        fill: url(#linear-gradient11);
      }

      .st13 {
        fill: url(#linear-gradient10);
      }

      .st14 {
        fill: url(#linear-gradient);
      }

      .st15 {
        isolation: isolate;
      }

      .st16 {
        fill: #ed1c24;
      }

      .st17 {
        fill: #2b3990;
      }

      .st18 {
        display: none;
      }

      .st19 {
        clip-path: url(#clippath);
      }
    </style>
    <clipPath id="clippath">
      <path class="st0" d="M640.54,311.56C589.489,140.777,474.628,22.842,214.825,24.95c31.599,34.941,55.149,71.653,69.069,110.485-122.155-19.201-208.976,28.221-275.726,113.483,80.444,1.664,135.182,28.37,177.566,67.11-114.798,77.998-121.434,148.695-133.935,219.789,105.619-48.921,174.882-81.281,264.101-63.426,0,0,58.411,35.998,94.146,57.986s105.794,5.509,105.794,5.509c0,0,16.412,13.964,29.918,16.479s21.967,4.856,36.033-7.371c14.066-12.227-15.762-22.507-15.762-22.507l-24.742-7.277c14.623-.098,37.705-19.377,63.68-45.216,28.6-10.845,46.854-28.923,55.37-53.81,39.317-31.18,67.611-60.445,70.806-85.346,5.424-9.633-23.757-15.764-60.397-14.889-11.139.266-19.266-.311-30.207-4.389Z"/>
    </clipPath>
    <linearGradient id="linear-gradient" x1="127.656" y1="99.853" x2="480.211" y2="99.853" gradientUnits="userSpaceOnUse">
      <stop offset="0" stop-color="#fff"/>
      <stop offset="1" stop-color="#fff" stop-opacity="0"/>
    </linearGradient>
    <linearGradient id="linear-gradient1" x1="-30.019" y1="163.383" x2="682.002" y2="163.383" gradientTransform="translate(-6.868 343.439) scale(.771 -1.04)" xlink:href="#linear-gradient"/>
    <linearGradient id="linear-gradient2" x1="77.577" y1="-7.263" x2="833.363" y2="-7.263" gradientTransform="translate(-6.868 343.439) scale(.771 -1.04)" xlink:href="#linear-gradient"/>
    <linearGradient id="linear-gradient3" x1="-46.9" y1="-74.603" x2="708.885" y2="-74.603" gradientTransform="translate(-6.868 343.439) scale(.771 -1.04)" xlink:href="#linear-gradient"/>
    <linearGradient id="linear-gradient4" x1="-169.523" y1="-108.273" x2="586.263" y2="-108.273" gradientTransform="translate(-6.868 343.439) scale(.771 -1.04)" xlink:href="#linear-gradient"/>
    <linearGradient id="linear-gradient5" x1="106.123" y1="79.886" x2="496.384" y2="79.886" gradientTransform="translate(-6.868 343.439) scale(.771 -1.04)" gradientUnits="userSpaceOnUse">
      <stop offset="0" stop-color="#fffcbd"/>
      <stop offset="1" stop-color="#3bffb4" stop-opacity="0"/>
    </linearGradient>
    <linearGradient id="linear-gradient6" y1="25.09" y2="25.09" xlink:href="#linear-gradient5"/>
    <linearGradient id="linear-gradient7" y1="-54.198" x2="675.203" y2="-54.198" xlink:href="#linear-gradient5"/>
    <linearGradient id="linear-gradient8" x1="40.024" y1="-138.454" x2="609.104" y2="-138.454" xlink:href="#linear-gradient5"/>
    <linearGradient id="linear-gradient9" x1="25.198" y1="130.608" y2="130.608" xlink:href="#linear-gradient5"/>
    <linearGradient id="linear-gradient10" x1="194.342" y1="210.63" x2="665.527" y2="210.63" xlink:href="#linear-gradient5"/>
    <linearGradient id="linear-gradient11" x1="60.643" y1="264.203" x2="531.829" y2="264.203" xlink:href="#linear-gradient5"/>
  </defs>
  <g class="st15">
    <g id="Layer_1" class="st18">
      <path class="st17" d="M632.964,312.439C581.913,141.656,467.052,23.721,207.249,25.829c31.599,34.941,55.149,71.653,69.069,110.485C154.163,117.113,67.342,164.535.592,249.797c80.444,1.664,135.182,28.37,177.566,67.11-114.798,77.998-121.434,148.695-133.935,219.789,105.619-48.921,174.882-81.281,264.101-63.426,0,0,58.411,35.998,94.146,57.986s105.794,5.509,105.794,5.509c0,0,16.412,13.964,29.918,16.479s21.967,4.856,36.033-7.371-15.762-22.507-15.762-22.507l-24.742-7.277c14.623-.098,37.705-19.377,63.68-45.216,28.6-10.845,46.854-28.923,55.37-53.81,39.317-31.18,67.611-60.445,70.806-85.346,5.424-9.633-23.757-15.764-60.397-14.889-11.139.266-19.266-.311-30.207-4.389Z"/>
    </g>
    <g id="Layer_2">
      <path class="st16" d="M632.373,324.222C581.321,153.439,466.46,35.504,206.657,37.612c31.599,34.941,55.149,71.653,69.069,110.485C153.571,128.896,66.751,176.318,0,261.58c80.444,1.664,135.182,28.37,177.566,67.11-114.798,77.998-121.434,148.695-133.935,219.789,105.619-48.921,174.882-81.281,264.101-63.426,0,0,58.411,35.998,94.146,57.986s105.794,5.509,105.794,5.509c0,0,16.412,13.964,29.918,16.479,13.506,2.516,21.967,4.856,36.033-7.371,14.066-12.227-15.762-22.507-15.762-22.507l-24.742-7.277c14.623-.098,37.705-19.377,63.68-45.216,28.6-10.845,46.854-28.923,55.37-53.81,39.317-31.18,67.611-60.445,70.806-85.346,5.424-9.633-23.757-15.764-60.397-14.889-11.139.266-19.266-.311-30.207-4.389Z"/>
      <path class="st10" d="M666.373,298.222C615.321,127.439,500.46,9.504,240.657,11.612c31.599,34.941,55.149,71.653,69.069,110.485-122.155-19.201-208.976,28.221-275.726,113.483,80.444,1.664,135.182,28.37,177.566,67.11-114.798,77.998-121.434,148.695-133.935,219.789,105.619-48.921,174.882-81.281,264.101-63.426,0,0,58.411,35.998,94.146,57.986s105.794,5.509,105.794,5.509c0,0,16.412,13.964,29.918,16.479,13.506,2.516,21.967,4.856,36.033-7.371,14.066-12.227-15.762-22.507-15.762-22.507l-24.742-7.277c14.623-.098,37.705-19.377,63.68-45.216,28.6-10.845,46.854-28.923,55.37-53.81,39.317-31.18,67.611-60.445,70.806-85.346,5.424-9.633-23.757-15.764-60.397-14.889-11.139.266-19.266-.311-30.207-4.389Z"/>
      <g class="st19">
        <rect class="st17" x="-30.019" y="-69.459" width="800" height="711.528"/>
        <rect class="st14" x="127.656" y="94.87" width="352.554" height="9.966"/>
        <rect class="st2" x="-30.019" y="168.366" width="549.124" height="10.363"/>
        <rect class="st1" x="52.962" y="347.038" width="582.877" height="7.906"/>
        <rect class="st4" x="-43.038" y="417.062" width="582.877" height="7.906"/>
        <rect class="st9" x="-137.607" y="452.074" width="582.877" height="7.906"/>
        <rect class="st8" x="74.977" y="257.307" width="300.977" height="6.128"/>
        <rect class="st5" x="74.977" y="314.286" width="300.977" height="6.128"/>
        <rect class="st7" x="74.977" y="397.862" width="438.886" height="3.869"/>
        <rect class="st6" x="24" y="485.475" width="438.886" height="3.869"/>
        <rect class="st3" x="12.566" y="204.988" width="363.388" height="5.281"/>
        <rect class="st13" x="143.012" y="121.778" width="363.388" height="5.281"/>
        <rect class="st12" x="39.901" y="66.07" width="363.388" height="5.281"/>
      </g>
      <rect class="st16" x="183.671" y="52.518" width="44.894" height="9.318"/>
      <rect class="st16" x="249.742" y="81.317" width="39.812" height="5.929"/>
      <rect class="st16" x="627.529" y="438.776" width="60.988" height="9.318"/>
      <rect class="st16" x="34" y="396.423" width="51.413" height="11.859"/>
      <rect class="st16" x="71.86" y="371.858" width="19.482" height="6.776"/>
      <rect class="st11" x="552.988" y="178.729" width="42.353" height="13.553"/>
      <rect class="st11" x="608.047" y="151.623" width="35.576" height="8.471"/>
      <rect class="st11" x="632.611" y="170.258" width="16.094" height="8.471"/>
      <rect class="st11" x="228.565" y="498.917" width="81.317" height="7.624"/>
      <rect class="st11" x="283.624" y="480.281" width="26.259" height="6.776"/>
      <rect class="st11" x="41.366" y="185.506" width="44.047" height="6.776"/>
      <rect class="st11" x="53.224" y="151.623" width="23.718" height="4.235"/>
      <rect class="st17" x="590.259" y="237.176" width="37.271" height="11.012"/>
      <rect class="st17" x="401.071" y="50.044" width="40.105" height="10.097"/>
      <rect class="st17" x="49.836" y="432.846" width="41.506" height="10.588"/>
      <rect class="st17" x="137.93" y="134.294" width="68.188" height="13.076"/>
      <rect class="st17" x="566.541" y="487.058" width="52.518" height="11.859"/>
    </g>
  </g>
</svg>