<?xml version="1.0" encoding="UTF-8"?>
<svg xmlns="http://www.w3.org/2000/svg" version="1.1" viewBox="0 0 800 800">
  <defs>
    <style>
      .cls-1 {
        fill: #012e8a;
      }

      .cls-2 {
        fill: #f7ea92;
      }

      .cls-3 {
        fill: #fff;
      }

      .cls-4 {
        fill: #f9da41;
      }

      .cls-5 {
        fill: #9e7b19;
      }

      .cls-6 {
        fill: #264cb9;
      }

      .cls-7 {
        fill: #548beb;
      }

      .cls-8 {
        fill: #ccaa2d;
      }

      .cls-9 {
        fill: #01256e;
      }
    </style>
  </defs>
  <!-- Generator: Adobe Illustrator 28.7.1, SVG Export Plug-In . SVG Version: 1.2.0 Build 142)  -->
  <g>
    <g id="Layer_1">
      <g>
        <g id="Ring">
          <path class="cls-8" d="M400,107.749c130.84,0,236.908,106.067,236.908,236.908,0,51.802-16.638,99.712-44.845,138.702,41.683-42.701,67.38-101.076,67.38-165.462,0-130.84-106.067-236.908-236.908-236.908-79.038,0-149.024,38.715-192.062,98.206,43.022-44.072,103.073-71.446,169.528-71.446Z"/>
          <path class="cls-8" d="M422.534,646.935c-181.723,0-329.038-147.315-329.038-329.038,0-74.373,24.687-142.974,66.298-198.081-55.088,58.828-88.832,137.888-88.832,224.841,0,181.723,147.315,329.038,329.038,329.038,107.349,0,202.68-51.417,262.74-130.957-60.04,64.117-145.436,104.197-240.206,104.197Z"/>
          <path class="cls-4" d="M422.534,646.935c94.77,0,180.166-40.081,240.206-104.197,41.611-55.107,66.298-123.708,66.298-198.081,0-181.723-147.315-329.038-329.038-329.038-94.77,0-180.166,40.081-240.206,104.197-41.611,55.107-66.298,123.708-66.298,198.081,0,181.723,147.315,329.038,329.038,329.038ZM422.534,80.989c130.84,0,236.908,106.067,236.908,236.908,0,64.386-25.697,122.761-67.38,165.462-43.038,59.491-113.024,98.206-192.062,98.206-130.84,0-236.908-106.067-236.908-236.908,0-64.386,25.697-122.761,67.38-165.462,43.038-59.491,113.024-98.206,192.062-98.206Z"/>
          <path class="cls-5" d="M400,686.229c-91.238,0-177.014-35.53-241.529-100.045-64.514-64.515-100.045-150.291-100.045-241.529s35.53-177.014,100.045-241.529C222.986,38.613,308.762,3.083,400,3.083s177.014,35.53,241.529,100.045c64.515,64.514,100.045,150.291,100.045,241.529s-35.53,177.014-100.045,241.529c-64.515,64.515-150.291,100.045-241.529,100.045ZM400,28.153c-84.541,0-164.022,32.922-223.802,92.702-59.78,59.78-92.702,139.26-92.702,223.802s32.922,164.022,92.702,223.802c59.78,59.779,139.26,92.701,223.802,92.701s164.022-32.922,223.802-92.701c59.779-59.78,92.701-139.261,92.701-223.802s-32.922-164.022-92.701-223.802c-59.78-59.78-139.261-92.702-223.802-92.702ZM400,594.099c-137.543,0-249.442-111.9-249.442-249.442s111.899-249.442,249.442-249.442,249.442,111.899,249.442,249.442-111.9,249.442-249.442,249.442ZM400,120.283c-123.719,0-224.373,100.654-224.373,224.373s100.654,224.373,224.373,224.373,224.373-100.653,224.373-224.373-100.653-224.373-224.373-224.373Z"/>
        </g>
        <g id="Shimmer">
          <g>
            <circle class="cls-2" cx="679.996" cy="398.408" r="16.927"/>
            <circle class="cls-2" cx="687.326" cy="364.305" r="26.634"/>
          </g>
          <path class="cls-3" d="M293.384,29.161l1.571,4.245c2.826,7.638,8.849,13.661,16.487,16.487l4.245,1.571-4.245,1.571c-7.638,2.826-13.661,8.849-16.487,16.487l-1.571,4.245-1.571-4.245c-2.826-7.638-8.849-13.661-16.487-16.487l-4.245-1.571,4.245-1.571c7.638-2.826,13.661-8.849,16.487-16.487l1.571-4.245Z"/>
          <path class="cls-3" d="M168.003,102.15l8.435,22.796c3.05,8.243,9.55,14.743,17.793,17.793l22.796,8.435-22.796,8.435c-8.243,3.05-14.743,9.55-17.793,17.793l-8.435,22.796-8.435-22.796c-3.05-8.243-9.55-14.743-17.793-17.793l-22.796-8.435,22.796-8.435c8.243-3.05,14.743-9.55,17.793-17.793l8.435-22.796Z"/>
        </g>
        <g>
          <g>
            <path class="cls-7" d="M589.642,549.783c3.105,5.562,6.845,12.348,9.842,17.991,3.572,7.303,7.178,14.795,10.642,22.146,2.305,5.417,5.609,13.413,7.846,18.878,3.158,7.516,5.676,15.312,8.378,23.001,3.975,11.243,7.236,23.634,10.429,35.096,4.318,17.862,7.81,35.969,10.134,54.217,3.832,7.989,7.733,15.969,11.856,23.942-1.77-26.36-6.434-52.507-12.783-78.159-3.269-11.462-6.608-23.853-10.677-35.096-2.766-7.689-5.344-15.485-8.577-23.001-2.29-5.465-5.673-13.461-8.032-18.878-3.546-7.351-7.238-14.843-10.895-22.146-3.068-5.644-6.898-12.429-10.076-17.991-45.454-77.538-118.74-145.628-207.894-166.689-1.382-.31-2.767-.609-4.156-.896.591.369,1.173.75,1.762,1.122,86.69,21.303,157.95,89.184,202.201,166.463Z"/>
            <path class="cls-1" d="M658.769,745.054c-4.123-7.973-8.024-15.953-11.856-23.942-5.159-10.756-10.188-21.531-15.43-32.334-4.74-9.121-9.251-19.026-13.97-28.16-3.477-6.625-7.264-14.104-10.633-20.827-5.001-8.933-9.721-18.377-14.795-27.209-2.781-4.848-6.768-11.899-9.468-16.757-4.695-7.567-9.131-15.432-13.893-22.942-41.525-66.775-93.414-127.496-157.634-173.581-7.736-5.575-15.603-10.908-23.65-15.983-.589-.372-1.171-.753-1.762-1.122-9.339-1.931-18.817-3.278-28.321-3.249.025.013.049.026.074.039,18.984,9.58,36.61,20.769,53.66,33.056,64.22,46.085,116.109,106.806,157.634,173.581,4.762,7.51,9.197,15.375,13.893,22.942,2.7,4.857,6.687,11.909,9.468,16.757,5.074,8.832,9.794,18.276,14.795,27.209,3.369,6.723,7.156,14.202,10.633,20.827,4.719,9.134,9.23,19.038,13.97,28.16,5.839,12.035,11.406,24.034,17.189,36.012,3.476,7.2,7.031,14.391,10.77,21.578-.124-4.691-.359-9.376-.673-14.055Z"/>
            <path class="cls-6" d="M626.35,631.8c-2.702-7.689-5.22-15.485-8.378-23.001-2.237-5.465-5.541-13.461-7.846-18.878-3.464-7.351-7.07-14.843-10.642-22.146-2.997-5.644-6.738-12.429-9.842-17.991-44.251-77.28-115.511-145.16-202.201-166.463,8.047,5.075,15.914,10.408,23.65,15.983,64.22,46.085,116.109,106.806,157.634,173.581,4.762,7.51,9.197,15.375,13.893,22.942,2.7,4.858,6.687,11.909,9.468,16.757,5.074,8.832,9.794,18.276,14.795,27.209,3.369,6.723,7.156,14.202,10.633,20.827,4.719,9.134,9.23,19.038,13.97,28.16,5.242,10.804,10.271,21.578,15.43,32.334-2.324-18.248-5.816-36.354-10.134-54.217-3.193-11.462-6.455-23.853-10.429-35.096Z"/>
          </g>
          <path class="cls-9" d="M357.664,378.949c9.402,0,18.776,1.339,28.015,3.249,1.388.287,2.774.586,4.156.896,89.154,21.061,162.44,89.15,207.894,166.689,3.179,5.562,7.008,12.348,10.076,17.991,3.657,7.303,7.349,14.795,10.895,22.146,2.359,5.417,5.742,13.413,8.032,18.878,3.233,7.516,5.811,15.312,8.577,23.001,4.069,11.243,7.408,23.634,10.677,35.096,6.349,25.651,11.013,51.799,12.783,78.159.314,4.679.548,9.364.673,14.055-3.739-7.187-7.294-14.379-10.77-21.578-5.783-11.978-11.35-23.977-17.189-36.012-4.74-9.121-9.251-19.026-13.97-28.16-3.477-6.625-7.264-14.104-10.633-20.827-5.001-8.933-9.721-18.377-14.795-27.209-2.781-4.848-6.768-11.899-9.468-16.757-4.695-7.567-9.131-15.432-13.893-22.942-41.525-66.775-93.414-127.496-157.634-173.581-17.05-12.287-34.676-23.476-53.66-33.056-.025-.013-.049-.026-.074-.039.102,0,.204,0,.306,0M357.664,370.175h-.336s-36.705.126-36.705.126l32.768,16.476.082.043c17.077,8.618,34.244,19.196,52.489,32.344,58.62,42.066,110.87,99.628,155.313,171.096l.02.033.021.032c2.558,4.034,5.093,8.298,7.545,12.422,2.006,3.374,4.079,6.86,6.191,10.269,2.629,4.727,6.57,11.7,9.424,16.676,2.73,4.753,5.432,9.829,8.044,14.739,2.14,4.023,4.352,8.18,6.607,12.212,4.203,8.387,7.678,15.191,10.619,20.796,2.23,4.317,4.501,8.993,6.696,13.516,2.331,4.802,4.741,9.766,7.2,14.503,3.06,6.308,6.101,12.724,9.042,18.93,2.633,5.557,5.357,11.302,8.088,16.96,4.056,8.401,7.516,15.332,10.887,21.813l17.563,33.758-1.008-38.04c-.122-4.607-.348-9.321-.689-14.41-1.679-25.002-5.938-51.065-13.02-79.679l-.037-.15-.042-.148c-.503-1.763-1.007-3.547-1.516-5.346-2.852-10.091-5.801-20.525-9.349-30.329-.627-1.742-1.249-3.505-1.872-5.269-2.106-5.966-4.284-12.135-6.879-18.174-2.227-5.315-5.668-13.451-8.064-18.953l-.068-.156-.074-.153c-3.403-7.055-7.088-14.545-10.952-22.262l-.066-.133-.071-.13c-3.362-6.184-7.385-13.285-10.167-18.154l-.024-.042-.025-.042c-24.103-41.117-55.054-78.055-89.506-106.821-38.446-32.101-80.145-53.624-123.941-63.969l-.047-.011-.048-.011c-1.43-.321-2.864-.63-4.302-.927-11.321-2.341-20.787-3.431-29.792-3.431h0Z"/>
        </g>
      </g>
    </g>
  </g>
</svg>