# Blender 4.2.2 LTS
# www.blender.org
mtllib ring.mtl
o Ring
v -0.000000 -0.650000 -0.010000
v -0.000000 -0.500000 0.140000
v -0.000000 -0.350000 -0.010000
v -0.000000 -0.500000 -0.160000
v 0.325000 -0.562916 -0.010000
v 0.250000 -0.433013 0.140000
v 0.175000 -0.303109 -0.010000
v 0.250000 -0.433013 -0.160000
v 0.562917 -0.325000 -0.010000
v 0.433013 -0.250000 0.140000
v 0.303109 -0.175000 -0.010000
v 0.433013 -0.250000 -0.160000
v 0.650000 -0.000000 -0.010000
v 0.500000 -0.000000 0.140000
v 0.350000 -0.000000 -0.010000
v 0.500000 -0.000000 -0.160000
v 0.562917 0.325000 -0.010000
v 0.433013 0.250000 0.140000
v 0.303109 0.175000 -0.010000
v 0.433013 0.250000 -0.160000
v 0.325000 0.562916 -0.010000
v 0.250000 0.433013 0.140000
v 0.175000 0.303109 -0.010000
v 0.250000 0.433013 -0.160000
v 0.000000 0.650000 -0.010000
v 0.000000 0.500000 0.140000
v 0.000000 0.350000 -0.010000
v 0.000000 0.500000 -0.160000
v -0.325000 0.562917 -0.010000
v -0.250000 0.433013 0.140000
v -0.175000 0.303109 -0.010000
v -0.250000 0.433013 -0.160000
v -0.562917 0.325000 -0.010000
v -0.433013 0.250000 0.140000
v -0.303109 0.175000 -0.010000
v -0.433013 0.250000 -0.160000
v -0.650000 -0.000000 -0.010000
v -0.500000 -0.000000 0.140000
v -0.350000 -0.000000 -0.010000
v -0.500000 -0.000000 -0.160000
v -0.562917 -0.325000 -0.010000
v -0.433013 -0.250000 0.140000
v -0.303109 -0.175000 -0.010000
v -0.433013 -0.250000 -0.160000
v -0.325000 -0.562916 -0.010000
v -0.250000 -0.433013 0.140000
v -0.175000 -0.303109 -0.010000
v -0.250000 -0.433013 -0.160000
vn 0.1862 -0.6947 0.6947
vn -0.1862 0.6947 0.6947
vn -0.1862 0.6947 -0.6947
vn 0.1862 -0.6947 -0.6947
vn 0.5086 -0.5086 0.6947
vn -0.5086 0.5086 0.6947
vn -0.5086 0.5086 -0.6947
vn 0.5086 -0.5086 -0.6947
vn 0.6947 -0.1862 0.6947
vn -0.6947 0.1862 0.6947
vn -0.6947 0.1862 -0.6947
vn 0.6947 -0.1862 -0.6947
vn 0.6947 0.1862 0.6947
vn -0.6947 -0.1862 0.6947
vn -0.6947 -0.1862 -0.6947
vn 0.6947 0.1862 -0.6947
vn 0.5086 0.5086 0.6947
vn -0.5086 -0.5086 0.6947
vn -0.5086 -0.5086 -0.6947
vn 0.5086 0.5086 -0.6947
vn 0.1862 0.6947 0.6947
vn -0.1862 -0.6947 0.6947
vn -0.1862 -0.6947 -0.6947
vn 0.1862 0.6947 -0.6947
vt 0.500000 0.500000
vt 0.583333 0.500000
vt 0.583333 0.750000
vt 0.500000 0.750000
vt 0.583333 1.000000
vt 0.500000 1.000000
vt 0.500000 0.000000
vt 0.583333 0.000000
vt 0.583333 0.250000
vt 0.500000 0.250000
vt 0.666667 0.500000
vt 0.666667 0.750000
vt 0.666667 1.000000
vt 0.666667 0.000000
vt 0.666667 0.250000
vt 0.750000 0.500000
vt 0.750000 0.750000
vt 0.750000 1.000000
vt 0.750000 0.000000
vt 0.750000 0.250000
vt 0.833333 0.500000
vt 0.833333 0.750000
vt 0.833333 1.000000
vt 0.833333 0.000000
vt 0.833333 0.250000
vt 0.916667 0.500000
vt 0.916667 0.750000
vt 0.916667 1.000000
vt 0.916667 0.000000
vt 0.916667 0.250000
vt 1.000000 0.500000
vt 1.000000 0.750000
vt 1.000000 1.000000
vt 1.000000 0.000000
vt 1.000000 0.250000
vt 0.000000 0.500000
vt 0.083333 0.500000
vt 0.083333 0.750000
vt 0.000000 0.750000
vt 0.083333 1.000000
vt 0.000000 1.000000
vt 0.000000 0.000000
vt 0.083333 0.000000
vt 0.083333 0.250000
vt 0.000000 0.250000
vt 0.166667 0.500000
vt 0.166667 0.750000
vt 0.166667 1.000000
vt 0.166667 0.000000
vt 0.166667 0.250000
vt 0.250000 0.500000
vt 0.250000 0.750000
vt 0.250000 1.000000
vt 0.250000 0.000000
vt 0.250000 0.250000
vt 0.333333 0.500000
vt 0.333333 0.750000
vt 0.333333 1.000000
vt 0.333333 0.000000
vt 0.333333 0.250000
vt 0.416667 0.500000
vt 0.416667 0.750000
vt 0.416667 1.000000
vt 0.416667 0.000000
vt 0.416667 0.250000
s 0
f 1/1/1 5/2/1 6/3/1 2/4/1
f 2/4/2 6/3/2 7/5/2 3/6/2
f 3/7/3 7/8/3 8/9/3 4/10/3
f 4/10/4 8/9/4 5/2/4 1/1/4
f 5/2/5 9/11/5 10/12/5 6/3/5
f 6/3/6 10/12/6 11/13/6 7/5/6
f 7/8/7 11/14/7 12/15/7 8/9/7
f 8/9/8 12/15/8 9/11/8 5/2/8
f 9/11/9 13/16/9 14/17/9 10/12/9
f 10/12/10 14/17/10 15/18/10 11/13/10
f 11/14/11 15/19/11 16/20/11 12/15/11
f 12/15/12 16/20/12 13/16/12 9/11/12
f 13/16/13 17/21/13 18/22/13 14/17/13
f 14/17/14 18/22/14 19/23/14 15/18/14
f 15/19/15 19/24/15 20/25/15 16/20/15
f 16/20/16 20/25/16 17/21/16 13/16/16
f 17/21/17 21/26/17 22/27/17 18/22/17
f 18/22/18 22/27/18 23/28/18 19/23/18
f 19/24/19 23/29/19 24/30/19 20/25/19
f 20/25/20 24/30/20 21/26/20 17/21/20
f 21/26/21 25/31/21 26/32/21 22/27/21
f 22/27/22 26/32/22 27/33/22 23/28/22
f 23/29/23 27/34/23 28/35/23 24/30/23
f 24/30/24 28/35/24 25/31/24 21/26/24
f 25/36/2 29/37/2 30/38/2 26/39/2
f 26/39/1 30/38/1 31/40/1 27/41/1
f 27/42/4 31/43/4 32/44/4 28/45/4
f 28/45/3 32/44/3 29/37/3 25/36/3
f 29/37/6 33/46/6 34/47/6 30/38/6
f 30/38/5 34/47/5 35/48/5 31/40/5
f 31/43/8 35/49/8 36/50/8 32/44/8
f 32/44/7 36/50/7 33/46/7 29/37/7
f 33/46/10 37/51/10 38/52/10 34/47/10
f 34/47/9 38/52/9 39/53/9 35/48/9
f 35/49/12 39/54/12 40/55/12 36/50/12
f 36/50/11 40/55/11 37/51/11 33/46/11
f 37/51/14 41/56/14 42/57/14 38/52/14
f 38/52/13 42/57/13 43/58/13 39/53/13
f 39/54/16 43/59/16 44/60/16 40/55/16
f 40/55/15 44/60/15 41/56/15 37/51/15
f 41/56/18 45/61/18 46/62/18 42/57/18
f 42/57/17 46/62/17 47/63/17 43/58/17
f 43/59/20 47/64/20 48/65/20 44/60/20
f 44/60/19 48/65/19 45/61/19 41/56/19
f 45/61/22 1/1/22 2/4/22 46/62/22
f 46/62/21 2/4/21 3/6/21 47/63/21
f 47/64/24 3/7/24 4/10/24 48/65/24
f 48/65/23 4/10/23 1/1/23 45/61/23
